<svg width="13" height="14" viewBox="0 0 13 14" fill="none" xmlns="http://www.w3.org/2000/svg">
<path d="M6.06662 13.0345C2.73896 13.0345 0.032135 10.3277 0.032135 7C0.032135 3.67234 2.73896 0.965515 6.06662 0.965515C9.39427 0.965515 12.1011 3.67234 12.1011 7C12.1011 10.3277 9.39379 13.0345 6.06662 13.0345ZM6.06662 1.93103C3.27145 1.93103 0.997652 4.20483 0.997652 7C0.997652 9.79517 3.27145 12.069 6.06662 12.069C8.86179 12.069 11.1356 9.79517 11.1356 7C11.1356 4.20483 8.86131 1.93103 6.06662 1.93103ZM6.028 7.44414H2.92869C2.80065 7.44414 2.67786 7.39327 2.58732 7.30274C2.49679 7.2122 2.44593 7.08941 2.44593 6.96138C2.44593 6.83334 2.49679 6.71055 2.58732 6.62002C2.67786 6.52948 2.80065 6.47862 2.92869 6.47862H5.54524V2.89655C5.54524 2.76851 5.5961 2.64572 5.68663 2.55519C5.77717 2.46465 5.89996 2.41379 6.028 2.41379C6.15603 2.41379 6.27882 2.46465 6.36936 2.55519C6.45989 2.64572 6.51076 2.76851 6.51076 2.89655V6.96138C6.51076 7.08941 6.45989 7.2122 6.36936 7.30274C6.27882 7.39327 6.15603 7.44414 6.028 7.44414Z" fill="black"/>
</svg>
